<?xml version="1.0" encoding="utf-8"?>
<!-- Generator: Adobe Illustrator 23.0.1, SVG Export Plug-In . SVG Version: 6.00 Build 0)  -->
<svg version="1.1" id="图层_1" xmlns="http://www.w3.org/2000/svg" xmlns:xlink="http://www.w3.org/1999/xlink" x="0px" y="0px"
	 viewBox="0 0 30 30" style="enable-background:new 0 0 30 30;" xml:space="preserve">
<style type="text/css">
	.st0{filter:url(#Adobe_OpacityMaskFilter);}
	.st1{fill-rule:evenodd;clip-rule:evenodd;fill:#FFFFFF;}
	.st2{opacity:0.8;mask:url(#mask-2_2_);fill-rule:evenodd;clip-rule:evenodd;fill-opacity:0.25;enable-background:new    ;}
</style>
<g id="页面-1">
	<g id="优惠券-内页-copy" transform="translate(-677.000000, -403.000000)">
		<g id="分组" transform="translate(677.000000, 403.000000)">
			<defs>
				<filter id="Adobe_OpacityMaskFilter" filterUnits="userSpaceOnUse" x="0" y="0" width="30" height="30">
					<feColorMatrix  type="matrix" values="1 0 0 0 0  0 1 0 0 0  0 0 1 0 0  0 0 0 1 0"/>
				</filter>
			</defs>
			<mask maskUnits="userSpaceOnUse" x="0" y="0" width="30" height="30" id="mask-2_2_">
				<g class="st0">
					<polygon id="path-1_2_" class="st1" points="0,0 30,0 30,30 0,30 					"/>
				</g>
			</mask>
			<path id="Fill-1" class="st2" d="M7.2,12.3c-0.4-0.4-0.4-1,0-1.3c0.4-0.4,1-0.4,1.3,0l6.7,6.9l6.7-6.9c0.4-0.4,1-0.4,1.3,0
				c0.4,0.4,0.4,1,0,1.3L16,19.5c-0.2,0.2-0.5,0.4-0.8,0.4c-0.3,0.1-0.6-0.2-0.8-0.4L7.2,12.3z M15,0C6.7,0,0,6.7,0,15
				c0,8.3,6.7,15,15,15c8.3,0,15-6.6,15-14.9C30,6.8,23.3,0,15,0L15,0z"/>
		</g>
	</g>
</g>
</svg>
