<?xml version="1.0" encoding="utf-8"?>
<!-- Generator: Adobe Illustrator 23.0.1, SVG Export Plug-In . SVG Version: 6.00 Build 0)  -->
<svg version="1.1" id="图层_1" xmlns="http://www.w3.org/2000/svg" xmlns:xlink="http://www.w3.org/1999/xlink" x="0px" y="0px"
	 viewBox="0 0 47 50" style="enable-background:new 0 0 47 50;" xml:space="preserve">
<style type="text/css">
	.st0{filter:url(#Adobe_OpacityMaskFilter);}
	.st1{fill-rule:evenodd;clip-rule:evenodd;fill:#FFFFFF;}
	.st2{mask:url(#mask-2_1_);fill-rule:evenodd;clip-rule:evenodd;fill:#FFFFFF;}
</style>
<g id="页面-1">
	<g id="内页7-copy-6" transform="translate(-59.000000, -1245.000000)">
		<g id="分组" transform="translate(59.000000, 1245.000000)">
			<defs>
				<filter id="Adobe_OpacityMaskFilter" filterUnits="userSpaceOnUse" x="0" y="0" width="46.3" height="49.9">
					<feColorMatrix  type="matrix" values="1 0 0 0 0  0 1 0 0 0  0 0 1 0 0  0 0 0 1 0"/>
				</filter>
			</defs>
			<mask maskUnits="userSpaceOnUse" x="0" y="0" width="46.3" height="49.9" id="mask-2_1_">
				<g class="st0">
					<polygon id="path-1_1_" class="st1" points="0,0 46.3,0 46.3,49.9 0,49.9 					"/>
				</g>
			</mask>
			<path id="Fill-1" class="st2" d="M35.6,14.2c-1,0-1.8-0.8-1.8-1.8c0-5.1-5.7-8.9-10.8-8.9c-5.2,0-10.6,3.3-10.6,8.9
				c0,1-0.8,1.8-1.8,1.8s-1.8-0.8-1.8-1.8C8.9,4.7,16.1,0,23.1,0c6.8,0,14.3,5.1,14.3,12.5C37.4,13.4,36.6,14.2,35.6,14.2L35.6,14.2
				z M33.9,30.2c-2,0-3.6-1.6-3.6-3.6s1.6-3.6,3.6-3.6c2,0,3.6,1.6,3.6,3.6C37.4,28.6,35.8,30.2,33.9,30.2L33.9,30.2z M12.4,30.2
				c-2,0-3.6-1.6-3.6-3.6s1.6-3.6,3.6-3.6c2,0,3.6,1.6,3.6,3.6C15.9,28.6,14.3,30.2,12.4,30.2L12.4,30.2z M5,19.5
				c-0.4,0-0.8,0.2-1,0.4c-0.2,0.3-0.3,0.7-0.2,1.1l3.8,23.1c0.2,1.1,1.4,2.1,2.5,2.1h26.5c1.1,0,2.3-1,2.5-2.1l3.8-23.1
				c0.1-0.4,0-0.8-0.2-1.1c-0.2-0.3-0.6-0.4-1-0.4H5z M36.4,49.9H9.9c-2.9,0-5.5-2.2-6-5.1L0.1,21.7c-0.3-1.5,0.1-2.9,1-4
				S3.4,16,4.9,16h36.6c1.5,0,2.9,0.6,3.8,1.7c0.9,1.1,1.3,2.5,1,4l-3.8,23.1C41.9,47.7,39.3,49.9,36.4,49.9L36.4,49.9z"/>
		</g>
	</g>
</g>
</svg>
