<?xml version="1.0" encoding="utf-8"?>
<!--Generator: Adobe Illustrator 23.0.1, SVG Export Plug-In . SVG Version: 6.00 Build 0)-->
<svg version="1.1" id="图层_1" xmlns="http://www.w3.org/2000/svg" xmlns:xlink="http://www.w3.org/1999/xlink" x="0px" y="0px" width="30" height="30" viewBox="0 -0.5 31 31" xml:space="preserve">
    <path id="Fill-1" class="st2" d="M7.2,12.3c-0.4-0.4-0.4-1,0-1.3c0.4-0.4,1-0.4,1.3,0l6.7,6.9l6.7-6.9c0.4-0.4,1-0.4,1.3,0
				c0.4,0.4,0.4,1,0,1.3L16,19.5c-0.2,0.2-0.5,0.4-0.8,0.4c-0.3,0.1-0.6-0.2-0.8-0.4L7.2,12.3z M15,0C6.7,0,0,6.7,0,15
				c0,8.3,6.7,15,15,15c8.3,0,15-6.6,15-14.9C30,6.8,23.3,0,15,0L15,0z"/>
</svg>
