<?xml version="1.0" encoding="utf-8"?>
<!-- Generator: Adobe Illustrator 23.0.1, SVG Export Plug-In . SVG Version: 6.00 Build 0)  -->
<svg version="1.1" id="图层_1" xmlns="http://www.w3.org/2000/svg" xmlns:xlink="http://www.w3.org/1999/xlink" x="0px" y="0px"
	 viewBox="0 0 110 110" style="enable-background:new 0 0 110 110;" xml:space="preserve">
<style type="text/css">
	.st0{opacity:0.5;}
	.st1{fill-rule:evenodd;clip-rule:evenodd;}
</style>
<g id="页面-1" class="st0">
	<g id="优惠券-内页" transform="translate(-627.000000, -245.000000)">
		<g id="分组" transform="translate(236.000000, 245.000000)">

				<g transform="translate(445.748595, 54.500000) rotate(-15.000000) translate(-445.748595, -54.500000) translate(391.248595, 0.000000)">
				<g>
					<path id="Fill-1" class="st1" d="M54.6,3C25.9,3,2.5,26.4,2.5,55s23.4,52,52.1,52s52.1-23.3,52.1-52C106.7,26.3,83.4,3,54.6,3
						 M54.6,109.3C24.6,109.3,0.2,85,0.2,55c0-29.9,24.4-54.3,54.4-54.3C84.6,0.7,109,25,109,55C109,85,84.6,109.3,54.6,109.3"/>
				</g>
				<path id="Fill-5" class="st1" d="M82.4,88.1c-0.3,0-0.6-0.1-0.8-0.4c-0.4-0.5-0.4-1.2,0.1-1.6c2-1.8,3.9-3.9,5.5-6
					c0.4-0.5,1.1-0.6,1.6-0.2s0.6,1.1,0.2,1.6c-1.7,2.3-3.7,4.4-5.8,6.3C83,88,82.7,88.1,82.4,88.1L82.4,88.1z M68.4,96.8
					c-0.5,0-0.9-0.3-1.1-0.8c-0.2-0.6,0.1-1.3,0.7-1.5c2.5-1,4.9-2.2,7.2-3.6c0.5-0.3,1.2-0.2,1.6,0.4c0.3,0.6,0.2,1.3-0.4,1.6
					c-2.4,1.5-5,2.8-7.6,3.8C68.7,96.8,68.5,96.8,68.4,96.8L68.4,96.8z M44.1,98.3c-0.1,0-0.2,0-0.3,0c-2.7-0.7-5.4-1.7-8-2.9
					c-0.6-0.3-0.8-1-0.6-1.5c0.3-0.6,0.9-0.8,1.5-0.6c2.5,1.2,5,2.1,7.6,2.7c0.6,0.2,1,0.8,0.8,1.4C45.1,98,44.6,98.3,44.1,98.3
					L44.1,98.3z M53.9,99.6c-0.6,0-1.1,0-1.7,0c-0.6,0-1.1-0.6-1.1-1.2s0.6-1.1,1.2-1.1c0.5,0,1,0,1.6,0h0.3c2,0,4.1-0.2,6.1-0.5
					c0.6-0.1,1.2,0.3,1.3,1c0.1,0.6-0.3,1.2-0.9,1.3c-2.1,0.4-4.3,0.6-6.5,0.6L53.9,99.6z"/>
				<path id="Fill-7" class="st1" d="M30.1,90.6c-0.2,0-0.5-0.1-0.7-0.2c-1.3-0.9-2.6-1.9-3.8-2.8c-0.5-0.4-0.5-1.1-0.1-1.6
					s1.2-0.5,1.6-0.1c1.1,0.9,2.3,1.8,3.6,2.7c0.5,0.4,0.7,1.1,0.3,1.6C30.8,90.4,30.4,90.6,30.1,90.6"/>
				<path id="Fill-9" class="st1" d="M13.4,42.6c-0.1,0-0.2,0-0.4-0.1c-0.6-0.2-0.9-0.8-0.7-1.3c0.5-1.3,1.1-2.7,1.8-4
					c0.3-0.5,1-0.8,1.5-0.5c0.6,0.2,0.8,0.9,0.6,1.4c-0.6,1.3-1.2,2.5-1.7,3.8C14.3,42.3,13.8,42.6,13.4,42.6"/>
				<path id="Fill-11" class="st1" d="M46.8,13.5c-0.5,0-1-0.4-1.1-0.9c-0.1-0.6,0.3-1.2,0.9-1.3c2.5-0.5,5-0.7,7.5-0.7h0.4
					c0.3,0,0.6,0,1,0c0.6,0,1.1,0.5,1.1,1.2c0,0.6-0.5,1.1-1.2,1.1c-0.3,0-0.6,0-0.9,0h-0.4c-2.4,0-4.8,0.3-7.1,0.7
					C46.9,13.5,46.8,13.5,46.8,13.5 M72.1,16.7c-0.2,0-0.3,0-0.5-0.1c-2.6-1.2-5.3-2.1-7.9-2.7c-0.6-0.1-1-0.8-0.9-1.4
					c0.1-0.6,0.8-1,1.4-0.8c2.8,0.7,5.7,1.6,8.4,2.8c0.6,0.3,0.8,0.9,0.6,1.5C72.9,16.4,72.5,16.7,72.1,16.7 M30.9,19.9
					c-0.4,0-0.7-0.2-1-0.5c-0.3-0.5-0.2-1.2,0.3-1.6c2.5-1.6,5.1-3,7.8-4.1c0.6-0.2,1.3,0,1.5,0.6s0,1.2-0.6,1.5
					c-2.6,1-5.1,2.3-7.4,3.9C31.3,19.9,31.1,19.9,30.9,19.9 M18.4,31.6c-0.2,0-0.5-0.1-0.7-0.2c-0.5-0.4-0.6-1.1-0.2-1.6
					c1.7-2.3,3.7-4.5,5.8-6.5c0.5-0.4,1.2-0.4,1.6,0c0.4,0.5,0.4,1.2,0,1.6c-2,1.9-3.9,4-5.6,6.2C19.1,31.4,18.7,31.6,18.4,31.6"/>
				<path id="Fill-13" class="st1" d="M83.1,22.6c-0.3,0-0.6-0.1-0.8-0.3c-1.1-0.9-2.3-1.8-3.6-2.7c-0.5-0.4-0.7-1.1-0.3-1.6
					c0.4-0.5,1.1-0.6,1.6-0.3c1.3,0.9,2.6,1.9,3.8,2.8c0.5,0.4,0.5,1.1,0.1,1.6C83.7,22.4,83.4,22.6,83.1,22.6"/>
			</g>
		</g>
	</g>
</g>
</svg>
