<?xml version="1.0" encoding="UTF-8"?>
<svg width="61px" height="44px" viewBox="0 -2 65 48" version="1.1" xmlns="http://www.w3.org/2000/svg" xmlns:xlink="http://www.w3.org/1999/xlink">
    <!--Generator: Sketch 53.2 (72643) - https://sketchapp.com-->
    <path d="M49.0164045,31.5384154 C49.2022103,31.7270095 49.3046504,31.9836505 49.3046504,32.2522448 C49.3046504,32.5211515 49.2022103,32.7774019 49.0164045,32.9654492 L46.3628404,35.7037353 C46.1803024,35.8938919 45.9308896,36.0006889 45.6709135,36.0000639 C45.4191449,36.0000639 45.1676802,35.9018606 44.9783027,35.7037353 L35.7096747,26.1459839 L26.4408187,35.7037353 C26.2513653,35.9018606 25.9999766,36.0000639 25.7482079,36.0000639 C25.4881559,36.0006889 25.2388191,35.8938919 25.0562811,35.7037353 L22.4027169,32.9654492 C22.2168352,32.7774019 22.1141671,32.5211515 22.1141671,32.2522448 C22.1141671,31.9836505 22.2168352,31.7270095 22.4027169,31.5384154 L31.7087341,22.0001172 L22.3780948,12.4627565 C21.9953882,12.0687714 21.9953882,11.4288484 22.3780948,11.0345508 L25.0295311,8.2946241 C25.213285,8.10579564 25.4623179,7.99985795 25.7220659,7.99985795 C25.9839418,7.99985795 26.2315308,8.10579564 26.4140688,8.2946241 L35.7094467,17.7362034 L45.0047487,8.2946241 C45.1878946,8.10548314 45.4372315,7.99931108 45.6969795,7.99985795 C45.9576395,7.99985795 46.2049245,8.10579564 46.3892864,8.2946241 L49.0410267,11.0345508 C49.4233533,11.4285359 49.4233533,12.0685371 49.0410267,12.4627565 L39.7100834,22.0001172 L49.0164045,31.5384154 Z M59.412178,1.69492488 C58.3295651,0.581641658 56.9506511,0 55.3916308,0 L19.172965,0 C16.21778,0 13.8572494,1.17523646 12.156272,3.55492819 L0.997745197,18.8959711 C-0.3366363,20.7305056 -0.332152644,23.25051 1.00868836,25.0799664 L12.169343,40.3082747 L12.1913053,40.3372591 L12.2135716,40.3662435 C13.0530791,41.4731205 13.9673649,42.3288252 15.0090169,42.9184356 C16.2403503,43.6154681 17.6414547,44 19.172965,44 L55.4070576,44 C58.591365,44 61,41.2179638 61,37.8750672 L61,5.87493231 C61,4.27242946 60.4950948,2.80781749 59.412178,1.69492488 L59.412178,1.69492488 Z" id="Fill-1" mask="url(#mask-2)"/>
</svg>
