<svg t="1592290556893" class="icon" viewBox="0 0 1024 1024" version="1.1" xmlns="http://www.w3.org/2000/svg" p-id="8087" width="200" height="200">
  <path fill-opacity="0.50" d="M468.50351408 14.8973037m62.13783703 0l-37.28270222 0q62.13783703 0 62.13783703 62.13783705l0 124.27567407q0 62.13783703-62.13783703 62.13783703l37.28270222 0q-62.13783703 0-62.13783703-62.13783703l0-124.27567407q0-62.13783703 62.13783703-62.13783705Z" p-id="8088"/>
  <path fill-opacity="0.46" d="M722.88101748 59.75292981m53.81294581 31.06891852l-32.28776797-18.64135111q53.8129458 31.06891852 22.74402728 84.88186311l-62.13783703 107.62589161q-31.06891852 53.8129458-84.88186433 22.74402608l32.28776797 18.64135111q-53.8129458-31.06891852-22.74402729-84.88186311l62.13783703-107.62589162q31.06891852-53.8129458 84.88186434-22.74402607Z" p-id="8089"/>
  <path fill-opacity="0.42" d="M920.75058427 225.78779235m31.06891851 53.8129458l-18.64135111-32.28776796q31.06891852 53.8129458-22.74402607 84.88186432l-107.62589162 62.13783703q-53.8129458 31.06891852-84.88186311-22.74402728l18.64135111 32.28776796q-31.06891852-53.8129458 22.74402608-84.88186432l107.62589161-62.13783704q53.8129458-31.06891852 84.88186311 22.74402729Z" p-id="8090"/>
  <path fill-opacity="0.38" d="M1009.1026963 468.50351408m0 62.13783703l0-37.28270222q0 62.13783703-62.13783705 62.13783703l-124.27567407 0q-62.13783703 0-62.13783703-62.13783703l0 37.28270222q0-62.13783703 62.13783703-62.13783703l124.27567407 0q62.13783703 0 62.13783705 62.13783703Z" p-id="8091"/>
  <path fill-opacity="0.34" d="M964.24707019 722.88502002m-31.06891852 53.81294581l18.64135111-32.28776676q-31.06891852 53.8129458-84.88186311 22.74402608l-107.62589161-62.13783703q-53.8129458-31.06891852-22.74402608-84.88186312l-18.64135111 32.28776677q31.06891852-53.8129458 84.88186311-22.7440273l107.62589162 62.13783704q53.8129458 31.06891852 22.74402607 84.88186432Z" p-id="8092"/>
  <path fill-opacity="0.30" d="M798.23808345 920.75058427m-53.81294581 31.06891851l32.28776797-18.64135111q-53.8129458 31.06891852-84.88186432-22.74402607l-62.13783703-107.62589162q-31.06891852-53.8129458 22.74402728-84.88186311l-32.28776797 18.64135111q53.8129458-31.06891852 84.88186432 22.74402608l62.13783705 107.62589161q31.06891852 53.8129458-22.7440273 84.88186311Z" p-id="8093"/>
  <path fill-opacity="0.26" d="M555.49648592 1009.1026963m-62.13783703 0l37.28270222 0q-62.13783703 0-62.13783703-62.13783705l0-124.27567407q0-62.13783703 62.13783703-62.13783703l-37.28270222 0q62.13783703 0 62.13783703 62.13783703l0 124.27567407q0 62.13783703-62.13783703 62.13783705Z" p-id="8094"/>
  <path fill-opacity="0.22" d="M301.10004019 964.24707019m-53.8129458-31.06891852l32.28776797 18.64135111q-53.8129458-31.06891852-22.7440273-84.88186311l62.13783705-107.62589161q31.06891852-53.8129458 84.88186432-22.74402608l-32.28776797-18.64135111q53.8129458 31.06891852 22.74402728 84.88186311l-62.13783703 107.62589162q-31.06891852 53.8129458-84.88186432 22.74402607Z" p-id="8095"/>
  <path fill-opacity="0.18" d="M103.24941573 798.22314367m-31.06891851-53.8129446l18.64135111 32.28776676q-31.06891852-53.8129458 22.74402607-84.88186432l107.62589162-62.13783704q53.8129458-31.06891852 84.88186311 22.7440273l-18.64135111-32.28776677q31.06891852 53.8129458-22.74402608 84.88186312l-107.62589161 62.13783703q-53.8129458 31.06891852-84.88186311-22.74402608Z" p-id="8096"/>
  <path fill-opacity="0.14" d="M14.8973037 555.49648592m0-62.13783703l0 37.28270222q0-62.13783703 62.13783705-62.13783703l124.27567407 0q62.13783703 0 62.13783703 62.13783703l0-37.28270222q0 62.13783703-62.13783703 62.13783703l-124.27567407 0q-62.13783703 0-62.13783705-62.13783703Z" p-id="8097"/>
  <path fill-opacity="0.10" d="M59.75292981 301.12591599m31.06891852-53.8129458l-18.64135111 32.28776796q31.06891852-53.8129458 84.88186311-22.74402729l107.62589161 62.13783704q53.8129458 31.06891852 22.74402608 84.88186432l18.64135111-32.28776796q-31.06891852 53.8129458-84.88186311 22.74402728l-107.62589162-62.13783703q-53.8129458-31.06891852-22.74402607-84.88186432Z" p-id="8098"/>
  <path fill-opacity="0.06" d="M225.78085888 103.24941573m53.8129458-31.06891851l-32.28776797 18.64135111q53.8129458-31.06891852 84.88186434 22.74402607l62.13783703 107.62589162q31.06891852 53.8129458-22.74402729 84.88186311l32.28776797-18.64135111q-53.8129458 31.06891852-84.88186433-22.74402608l-62.13783703-107.62589161q-31.06891852-53.8129458 22.74402728-84.88186311Z" p-id="8099"/>
</svg>
