<svg t="1592290719948" class="icon" viewBox="0 0 1024 1024" version="1.1" xmlns="http://www.w3.org/2000/svg" p-id="8087" width="200" height="200"><path d="M964.984832 897.875968c8.54395259 9.63136475 12.73825659 20.50548622 12.73825659 32.15633067 0 13.20429037-4.81568237 24.38910103-14.44704711 33.86512118-9.16533097 9.16533097-21.74824297 14.29170252-34.79718873 13.98101333-5.59240533 0-11.18481067-0.93206755-16.62187142-2.64085807-5.28171615-1.70879052-10.09739852-4.34964859-14.44704711-7.76722963l-5.28171614-4.194304-264.08580741-258.80409126c-63.38059378 43.65183052-134.37307259 65.55541808-212.82209185 65.55541808-7.92257422 0-15.84514845-0.31068918-24.07841185-0.93206755-8.07791882-0.62137837-16.15583763-1.70879052-24.07841186-3.10689186-54.37060741-6.05843911-106.41104592-24.54444563-151.92701156-54.05991822-49.86561422-31.22426311-89.78917452-72.39058015-119.77068088-123.8096403-14.44704711-23.92306725-25.63185778-49.39958045-33.70977659-75.96350578-8.07791882-26.71926992-13.20429037-54.37060741-14.9130809-82.17728948-1.70879052-27.80668208-0.15534459-55.76870875 4.81568237-83.26470163 7.14585125-44.42855348 23.1463443-86.99297185 47.06941156-125.36308623 23.76772267-38.68080355 54.99198578-72.39058015 91.96399881-99.42053925 31.3796077-24.23375645 66.48748563-43.03045215 105.32363378-56.23474252A370.23592297 370.23592297 0 0 1 415.22031882 45.96622222c17.08790518 0 33.554432 1.08741215 49.24423585 3.10689186 42.09838459 5.59240533 82.33263408 18.01997275 120.85809303 37.43804681 37.90408059 18.9520403 71.92454637 44.27320889 100.50795141 74.87609363 33.554432 34.02046578 59.03094518 74.25471525 76.42953956 120.70274845 17.39859437 46.44803318 25.165824 93.67278933 22.9909997 141.51892385-2.79620267 79.84712059-31.06891852 151.61632237-84.50745837 215.30760533l265.17321955 258.95943585h-0.93206755z m-235.19171318-475.35445333a283.86797037 283.86797037 0 0 0-21.43755379-124.74170785 291.84515792 291.84515792 0 0 0-37.43804681-68.66230993c-15.68980385-21.43755378-34.02046578-40.70028325-54.99198577-57.78818844-20.66083082-16.777216-43.49648592-30.91357392-67.88558697-42.0983846-52.04043852-23.45703348-109.82862697-32.46701985-166.84009245-25.94254696-3.26223645 0-6.52447289 0.31068918-9.63136473 1.08741214l-6.3691283 1.08741215c-45.51596563 6.83516208-88.85710697 23.76772267-126.76118755 49.39958045-38.05942518 25.165824-69.59437748 58.40956682-92.4300326 97.24571496-26.40858075 42.25372918-40.85562785 89.47848533-43.34114133 141.51892386-2.48551348 52.04043852 7.30119585 100.19726222 29.360128 144.6258157 18.48600652 40.23424948 46.137344 75.80816118 80.77918815 104.08087703 34.33115497 28.58340503 74.72074903 49.55492503 118.21723496 61.36111407 45.67131022 12.42756741 91.65330963 14.91308089 137.94599822 7.30119586a321.11669097 321.11669097 0 0 0 70.68178963-20.81617541c22.52496592-9.63136475 43.80717511-21.59289837 63.69128297-35.88460088 19.72876325-14.29170252 37.59339141-30.75822933 53.43853985-48.93354667a283.58519467 283.58519467 0 0 0 40.07890488-59.80766815c19.72876325-38.37011437 30.91357392-80.31315437 32.93305364-123.03291733z" p-id="8088"></path></svg>