<?xml version="1.0" standalone="no"?><!DOCTYPE svg PUBLIC "-//W3C//DTD SVG 1.1//EN" "http://www.w3.org/Graphics/SVG/1.1/DTD/svg11.dtd"><svg t="1589847622723" class="icon" viewBox="0 0 1024 1024" version="1.1" xmlns="http://www.w3.org/2000/svg" p-id="8243" xmlns:xlink="http://www.w3.org/1999/xlink" width="200" height="200"><defs><style type="text/css"></style></defs><path d="M839.52960029 538.47012285c0.67413833-1.30529567 1.76678584-2.39794318 2.35722286-3.74621984 11.5734687-24.07217966 7.78426525-53.52842075-12.70909718-72.88841667L364.62604541 22.45089491c-25.33449305-23.94549606-65.26929339-22.80986627-89.25777174 2.48390643-23.94549606 25.33449305-22.85058661 65.26929339 2.48390645 89.25777174l416.83035432 394.31457428L279.49228236 908.67179713c-25.08112585 24.19660132-25.83896681 64.13366359-1.64010224 89.25777173 12.37202867 12.87650111 28.91104831 19.31701362 45.45006796 19.31701362 15.78118 0 31.56235869-5.89079582 43.80770378-17.67464943l460.34396925-443.67826601c0.88452455-0.88452455 1.21933111-2.10385564 2.10385564-3.02909924 0.67413833-0.63115604 1.388997-1.09490945 2.06087339-1.76678583C835.19520539 547.34929887 837.08867482 542.76153678 839.52960029 538.47012285z" p-id="8244"></path></svg>