<?xml version="1.0" encoding="UTF-8"?>
<svg width="32px" height="24px" viewBox="0 0 32 24" version="1.1" xmlns="http://www.w3.org/2000/svg" xmlns:xlink="http://www.w3.org/1999/xlink">
    <!-- Generator: Sketch 53.2 (72643) - https://sketchapp.com -->
    <path d="M32,11.7210029 C31.9893652,11.5237152 31.684502,10.5478457 31.2591116,9.53322324 C30.8230863,8.48689386 30.0857428,6.97200621 29.0648056,5.70725116 C27.7283704,4.04439774 26.0799823,2.71622879 24.165725,1.76502027 C21.8154426,0.591863084 19.064584,0 15.9946826,0 C12.9283261,0 10.1774676,0.595386078 7.82718511,1.76854326 C5.92710757,2.7127058 4.2787194,4.03735175 2.92810458,5.70725116 C1.90716739,6.9755292 1.17336878,8.49041685 0.737343525,9.53674623 C0.31195303,10.5513687 0.0106347624,11.5272382 0,11.7245258 L0,11.7245258 L0,11.7315718 L0,11.7386178 L0,11.7386178 C0.0106347624,11.9359055 0.315497951,12.911775 0.740888446,13.9299204 C1.18045862,14.9762498 1.91425723,16.4911375 2.9316495,17.7523695 C4.26808463,19.4152229 5.9164728,20.7433919 7.83073003,21.6946004 C10.1951922,22.8712806 12.9425058,23.4666667 15.9982275,23.4666667 C19.0574942,23.4666667 21.8048078,22.8712806 24.165725,21.6946004 C26.0728924,20.7469149 27.7212806,19.4187459 29.0648056,17.7558925 C30.0857428,16.4911375 30.8230863,14.9762498 31.2591116,13.9299204 C31.684502,12.915298 31.9893652,11.9394285 32,11.7421408 L32,11.7421408 L32,11.7350948 C32,11.7280488 32,11.7245258 32,11.7210029 L32,11.7210029 Z M29.3696688,11.7280488 C29.1676083,12.3410499 28.3841808,14.5534905 27.0867398,16.159976 L27.0690152,16.177591 C25.9665448,17.5515588 24.6017503,18.6472101 23.0171707,19.4398839 C21.0142905,20.4368914 18.6462834,20.9442026 15.9840479,20.9442026 C13.3182674,20.9442026 10.9538053,20.4368914 8.950925,19.4398839 C7.36989033,18.6542561 6.00864074,17.5550818 4.89908054,16.174068 C3.59454968,14.5605365 2.80757727,12.3410499 2.60551678,11.7245258 C2.80757727,11.1115248 3.59454968,8.89556123 4.89908054,7.27498374 C6.01218567,5.89396987 7.37698017,4.79831857 8.95446992,4.01269079 C10.9608951,3.01568333 13.3289022,2.51189511 15.9946826,2.51189511 C18.6710978,2.51189511 21.03556,3.01568333 23.0242606,4.01269079 C24.6052952,4.79831857 25.9665448,5.89749287 27.076105,7.27850673 C28.3806359,8.89908422 29.1676083,11.1150478 29.3696688,11.7280488 Z" id="Shape"></path>
    <path d="M16,5.33333333 C12.4694749,5.33333333 9.6,7.96707059 9.6,11.2 C9.6,14.4329294 12.4731679,17.0666667 16,17.0666667 C19.5268321,17.0666667 22.4,14.4329294 22.4,11.2 C22.4,7.96707059 19.5305251,5.33333333 16,5.33333333 Z M19.7668782,11.2 C19.7668782,12.1207925 19.3754183,12.9874207 18.6626659,13.6407771 C17.9499134,14.2941335 17.0045009,14.6529717 16,14.6529717 C14.9954991,14.6529717 14.0500866,14.2941335 13.3373341,13.6407771 C12.6245817,12.9874207 12.2331218,12.1207925 12.2331218,11.2 C12.2331218,10.2792075 12.6245817,9.41257934 13.3373341,8.75922293 C14.0500866,8.10586651 14.9954991,7.74702827 16,7.74702827 C17.0045009,7.74702827 17.9499134,8.10586651 18.6626659,8.75922293 C19.3754183,9.41257934 19.7668782,10.2792075 19.7668782,11.2 Z" id="Shape" fill-rule="nonzero"></path>
</svg>
