<?xml version="1.0" encoding="UTF-8"?>
<svg width="32px" height="12px" viewBox="0 0 32 12" version="1.1" xmlns="http://www.w3.org/2000/svg" xmlns:xlink="http://www.w3.org/1999/xlink">
    <!-- Generator: Sketch 53.2 (72643) - https://sketchapp.com -->
    <defs>
        <style type="text/css">
		</style>
        <polygon id="path-1" points="0 0.0005 31.0646361 0.0005 31.0646361 11.711 0 11.711"></polygon>
    </defs>
    <path d="M26.6189,4.4045 L26.6009,4.4225 C25.4989,5.7965 24.1339,6.8915 22.5499,7.6835 C20.5469,8.6805 18.1789,9.1885 15.5159,9.1885 C12.8499,9.1885 10.4859,8.6805 8.4829,7.6835 C6.9019,6.8985 5.5409,5.7995 4.4309,4.4185 C3.4829,3.2455 2.8089,1.7565 2.4339,0.7935 C2.2469,0.3115 1.7809,0.0005 1.2649,0.0005 C0.3799,0.0005 -0.2351,0.8865 0.0859,1.7115 C0.1449,1.8625 0.2079,2.0175 0.2729,2.1745 C0.7129,3.2205 1.4459,4.7355 2.4639,5.9965 C3.7999,7.6595 5.4489,8.9875 7.3629,9.9385 C9.7269,11.1155 12.4739,11.7115 15.5299,11.7115 C18.5899,11.7115 21.3369,11.1155 23.6979,9.9385 C25.6049,8.9915 27.2539,7.6635 28.5969,6.0005 C29.6179,4.7355 30.3549,3.2205 30.7909,2.1745 C30.8559,2.0175 30.9189,1.8635 30.9779,1.7125 C31.2999,0.8875 30.6849,0.0005 29.8009,0.0005 L29.7749,0.0005 C29.2589,0.0005 28.7929,0.3115 28.6049,0.7935 C28.2319,1.7525 27.5609,3.2365 26.6189,4.4045" p-id="Fill-1"></path>
</svg>
